<svg width="640" height="320" viewBox="0 0 640 320" fill="none" xmlns="http://www.w3.org/2000/svg">
<path d="M640 162L0 291V257L640 146V162Z" fill="#CEAF81"/>
<path d="M640 162L0 291V320H640V162Z" fill="#1A91FF"/>
<path d="M576 29.5V157L640 146V23.5L576 29.5Z" fill="#FF0099"/>
<path d="M500.5 34.5V170.5L576 157V29.5L500.5 34.5Z" fill="#8F00FF"/>
<path d="M421.5 41.5V184L500.5 170.5V34.5L421.5 41.5Z" fill="#0038FF"/>
<path d="M334 46.5V199L421.5 184V40.5L334 46.5Z" fill="#00E0FF"/>
<path d="M230 56.5V217L334 199V47.5L230 56.5Z" fill="#05E700"/>
<path d="M123.5 65V235.5L230.5 217V56.5L123.5 65Z" fill="#FAFF00"/>
<path d="M0 74.5V257L124 235.5V65L0 74.5Z" fill="#FF0000"/>
<path d="M48.5 248.5V207L77 202.5V243.5" stroke="white" stroke-width="2"/>
<path d="M10 229V207L34 203V225L10 229Z" stroke="white"/>
<path d="M90 216V194L114 190V212L90 216Z" stroke="white"/>
<path d="M11 177V155L35 151V173L11 177Z" stroke="white"/>
<path d="M91 164V142L115 138V160L91 164Z" stroke="white"/>
<path d="M11 125V103L35 99V121L11 125Z" stroke="white"/>
<path d="M91 112V90L115 86V108L91 112Z" stroke="white"/>
</svg>
